<mxfile host="Electron" modified="2023-09-25T08:52:51.758Z" agent="Mozilla/5.0 (Windows NT 10.0; Win64; x64) AppleWebKit/537.36 (KHTML, like Gecko) draw.io/21.7.5 Chrome/114.0.5735.289 Electron/25.8.1 Safari/537.36" etag="eTFmGSMC6FHYjpUVJR9D" version="21.7.5" type="device">
  <diagram name="페이지-1" id="X_Ahd8BPR27qkbVno4Ms">
    <mxGraphModel dx="2140" dy="786" grid="0" gridSize="10" guides="1" tooltips="1" connect="1" arrows="1" fold="1" page="1" pageScale="1" pageWidth="827" pageHeight="1169" math="0" shadow="0">
      <root>
        <mxCell id="0" />
        <mxCell id="1" parent="0" />
        <mxCell id="xA6Rh12xu-k43yr7fUOe-24" value="" style="group;movable=1;resizable=1;rotatable=1;deletable=1;editable=1;locked=0;connectable=1;" vertex="1" connectable="0" parent="1">
          <mxGeometry x="180" y="670" width="620" height="435" as="geometry" />
        </mxCell>
        <mxCell id="xA6Rh12xu-k43yr7fUOe-22" value="" style="rounded=1;arcSize=10;dashed=0;fillColor=none;gradientColor=none;strokeWidth=2;" vertex="1" parent="xA6Rh12xu-k43yr7fUOe-24">
          <mxGeometry width="620" height="430" as="geometry" />
        </mxCell>
        <mxCell id="xA6Rh12xu-k43yr7fUOe-19" value="RDS" style="shape=image;verticalLabelPosition=bottom;labelBackgroundColor=default;verticalAlign=top;aspect=fixed;imageAspect=0;image=https://cdn.freebiesupply.com/logos/large/2x/mysql-5-logo-png-transparent.png;imageBorder=default;" vertex="1" parent="xA6Rh12xu-k43yr7fUOe-24">
          <mxGeometry x="480" y="168.36222222222221" width="80.55555555555556" height="80.55555555555556" as="geometry" />
        </mxCell>
        <mxCell id="xA6Rh12xu-k43yr7fUOe-13" value="Redis" style="image;sketch=0;aspect=fixed;html=1;points=[];align=center;fontSize=12;image=img/lib/mscae/Cache_Redis_Product.svg;" vertex="1" parent="xA6Rh12xu-k43yr7fUOe-24">
          <mxGeometry x="320" y="250.00444444444446" width="40.27777777777778" height="33.833333333333336" as="geometry" />
        </mxCell>
        <mxCell id="xA6Rh12xu-k43yr7fUOe-31" value="EC2 instance contents" style="points=[[0,0],[0.25,0],[0.5,0],[0.75,0],[1,0],[1,0.25],[1,0.5],[1,0.75],[1,1],[0.75,1],[0.5,1],[0.25,1],[0,1],[0,0.75],[0,0.5],[0,0.25]];outlineConnect=0;gradientColor=none;html=1;whiteSpace=wrap;fontSize=12;fontStyle=0;container=1;pointerEvents=0;collapsible=0;recursiveResize=0;shape=mxgraph.aws4.group;grIcon=mxgraph.aws4.group_ec2_instance_contents;strokeColor=#D86613;fillColor=none;verticalAlign=top;align=left;spacingLeft=30;fontColor=#D86613;dashed=0;" vertex="1" parent="xA6Rh12xu-k43yr7fUOe-24">
          <mxGeometry x="140" y="130.09833333333336" width="230" height="157.08333333333334" as="geometry" />
        </mxCell>
        <mxCell id="xA6Rh12xu-k43yr7fUOe-35" style="edgeStyle=orthogonalEdgeStyle;rounded=0;orthogonalLoop=1;jettySize=auto;html=1;exitX=0.5;exitY=1;exitDx=0;exitDy=0;" edge="1" parent="xA6Rh12xu-k43yr7fUOe-24" source="xA6Rh12xu-k43yr7fUOe-34" target="xA6Rh12xu-k43yr7fUOe-13">
          <mxGeometry relative="1" as="geometry">
            <Array as="points">
              <mxPoint x="250" y="255" />
            </Array>
          </mxGeometry>
        </mxCell>
        <mxCell id="xA6Rh12xu-k43yr7fUOe-50" value="http 요청" style="edgeStyle=orthogonalEdgeStyle;rounded=0;orthogonalLoop=1;jettySize=auto;html=1;entryX=0;entryY=0.5;entryDx=0;entryDy=0;" edge="1" parent="xA6Rh12xu-k43yr7fUOe-24" source="xA6Rh12xu-k43yr7fUOe-8" target="xA6Rh12xu-k43yr7fUOe-34">
          <mxGeometry x="-0.4347" y="-11" relative="1" as="geometry">
            <mxPoint as="offset" />
          </mxGeometry>
        </mxCell>
        <mxCell id="xA6Rh12xu-k43yr7fUOe-8" value="Application&lt;br&gt;Load&lt;br&gt;Balancer" style="sketch=0;outlineConnect=0;fontColor=#232F3E;gradientColor=none;fillColor=#8C4FFF;strokeColor=none;dashed=0;verticalLabelPosition=bottom;verticalAlign=top;align=center;html=1;fontSize=12;fontStyle=0;aspect=fixed;pointerEvents=1;shape=mxgraph.aws4.application_load_balancer;" vertex="1" parent="xA6Rh12xu-k43yr7fUOe-24">
          <mxGeometry y="177.22333333333336" width="62.833333333333336" height="62.833333333333336" as="geometry" />
        </mxCell>
        <mxCell id="xA6Rh12xu-k43yr7fUOe-23" value="" style="dashed=0;html=1;shape=mxgraph.aws3.virtual_private_cloud;fillColor=#F58536;gradientColor=none;dashed=0;" vertex="1" parent="xA6Rh12xu-k43yr7fUOe-24">
          <mxGeometry x="30" y="-20" width="52" height="29" as="geometry" />
        </mxCell>
        <mxCell id="xA6Rh12xu-k43yr7fUOe-52" style="edgeStyle=orthogonalEdgeStyle;rounded=0;orthogonalLoop=1;jettySize=auto;html=1;" edge="1" parent="xA6Rh12xu-k43yr7fUOe-24" source="xA6Rh12xu-k43yr7fUOe-34" target="xA6Rh12xu-k43yr7fUOe-19">
          <mxGeometry relative="1" as="geometry" />
        </mxCell>
        <mxCell id="xA6Rh12xu-k43yr7fUOe-34" value="Spring WAS" style="shape=image;verticalLabelPosition=bottom;labelBackgroundColor=default;verticalAlign=top;aspect=fixed;imageAspect=0;image=https://cdn.freebiesupply.com/logos/large/2x/spring-3-logo-png-transparent.png;" vertex="1" parent="xA6Rh12xu-k43yr7fUOe-24">
          <mxGeometry x="229.72" y="188.50222222222226" width="40.27777777777778" height="40.27777777777778" as="geometry" />
        </mxCell>
        <mxCell id="xA6Rh12xu-k43yr7fUOe-2" value="RDS(Mysql)" style="sketch=0;points=[[0,0,0],[0.25,0,0],[0.5,0,0],[0.75,0,0],[1,0,0],[0,1,0],[0.25,1,0],[0.5,1,0],[0.75,1,0],[1,1,0],[0,0.25,0],[0,0.5,0],[0,0.75,0],[1,0.25,0],[1,0.5,0],[1,0.75,0]];outlineConnect=0;fontColor=#232F3E;fillColor=#C925D1;strokeColor=#ffffff;dashed=0;verticalLabelPosition=bottom;verticalAlign=top;align=center;html=1;fontSize=12;fontStyle=0;aspect=fixed;shape=mxgraph.aws4.resourceIcon;resIcon=mxgraph.aws4.rds;" vertex="1" parent="1">
          <mxGeometry x="630" y="290" width="78" height="78" as="geometry" />
        </mxCell>
        <mxCell id="xA6Rh12xu-k43yr7fUOe-6" value="Route 53" style="sketch=0;points=[[0,0,0],[0.25,0,0],[0.5,0,0],[0.75,0,0],[1,0,0],[0,1,0],[0.25,1,0],[0.5,1,0],[0.75,1,0],[1,1,0],[0,0.25,0],[0,0.5,0],[0,0.75,0],[1,0.25,0],[1,0.5,0],[1,0.75,0]];outlineConnect=0;fontColor=#232F3E;fillColor=#8C4FFF;strokeColor=#ffffff;dashed=0;verticalLabelPosition=bottom;verticalAlign=top;align=center;html=1;fontSize=12;fontStyle=0;aspect=fixed;shape=mxgraph.aws4.resourceIcon;resIcon=mxgraph.aws4.route_53;" vertex="1" parent="1">
          <mxGeometry x="230" y="130" width="78" height="78" as="geometry" />
        </mxCell>
        <mxCell id="xA6Rh12xu-k43yr7fUOe-43" style="edgeStyle=orthogonalEdgeStyle;rounded=0;orthogonalLoop=1;jettySize=auto;html=1;entryX=-0.003;entryY=0.485;entryDx=0;entryDy=0;entryPerimeter=0;" edge="1" parent="1" source="xA6Rh12xu-k43yr7fUOe-9" target="xA6Rh12xu-k43yr7fUOe-22">
          <mxGeometry relative="1" as="geometry" />
        </mxCell>
        <mxCell id="xA6Rh12xu-k43yr7fUOe-53" value="https 요청" style="edgeLabel;html=1;align=center;verticalAlign=middle;resizable=0;points=[];" vertex="1" connectable="0" parent="xA6Rh12xu-k43yr7fUOe-43">
          <mxGeometry x="-0.0224" y="-1" relative="1" as="geometry">
            <mxPoint y="7" as="offset" />
          </mxGeometry>
        </mxCell>
        <mxCell id="xA6Rh12xu-k43yr7fUOe-9" value="" style="shape=image;verticalLabelPosition=bottom;labelBackgroundColor=default;verticalAlign=top;aspect=fixed;imageAspect=0;image=https://xn--220b31d95hq8o.xn--3e0b707e/image/logo.png;" vertex="1" parent="1">
          <mxGeometry x="-210" y="854" width="250" height="50" as="geometry" />
        </mxCell>
        <mxCell id="xA6Rh12xu-k43yr7fUOe-11" value="Security Group" style="rounded=1;arcSize=10;dashed=1;strokeColor=#ff0000;fillColor=none;gradientColor=none;dashPattern=8 4;strokeWidth=2;align=left;verticalAlign=top;" vertex="1" parent="1">
          <mxGeometry x="20" y="30" width="199.5" height="199.5" as="geometry" />
        </mxCell>
        <mxCell id="xA6Rh12xu-k43yr7fUOe-47" style="edgeStyle=orthogonalEdgeStyle;rounded=0;orthogonalLoop=1;jettySize=auto;html=1;entryX=0;entryY=0.5;entryDx=0;entryDy=0;entryPerimeter=0;" edge="1" parent="1" source="xA6Rh12xu-k43yr7fUOe-17" target="xA6Rh12xu-k43yr7fUOe-18">
          <mxGeometry relative="1" as="geometry" />
        </mxCell>
        <mxCell id="xA6Rh12xu-k43yr7fUOe-17" value="Github&lt;br&gt;Action" style="dashed=0;outlineConnect=0;html=1;align=center;labelPosition=center;verticalLabelPosition=bottom;verticalAlign=top;shape=mxgraph.weblogos.github" vertex="1" parent="1">
          <mxGeometry x="-75" y="551.5" width="75" height="75" as="geometry" />
        </mxCell>
        <mxCell id="xA6Rh12xu-k43yr7fUOe-45" value="cname 인증" style="edgeStyle=orthogonalEdgeStyle;rounded=0;orthogonalLoop=1;jettySize=auto;html=1;entryX=0.5;entryY=1;entryDx=0;entryDy=0;" edge="1" parent="1" source="xA6Rh12xu-k43yr7fUOe-5" target="xA6Rh12xu-k43yr7fUOe-9">
          <mxGeometry x="0.0417" relative="1" as="geometry">
            <mxPoint as="offset" />
          </mxGeometry>
        </mxCell>
        <mxCell id="xA6Rh12xu-k43yr7fUOe-46" value="ACM 인증서 제공" style="edgeStyle=orthogonalEdgeStyle;rounded=0;orthogonalLoop=1;jettySize=auto;html=1;" edge="1" parent="1" source="xA6Rh12xu-k43yr7fUOe-5" target="xA6Rh12xu-k43yr7fUOe-8">
          <mxGeometry x="-0.296" y="-11" relative="1" as="geometry">
            <mxPoint as="offset" />
          </mxGeometry>
        </mxCell>
        <mxCell id="xA6Rh12xu-k43yr7fUOe-5" value="Certificate Manager" style="sketch=0;points=[[0,0,0],[0.25,0,0],[0.5,0,0],[0.75,0,0],[1,0,0],[0,1,0],[0.25,1,0],[0.5,1,0],[0.75,1,0],[1,1,0],[0,0.25,0],[0,0.5,0],[0,0.75,0],[1,0.25,0],[1,0.5,0],[1,0.75,0]];outlineConnect=0;fontColor=#232F3E;fillColor=#DD344C;strokeColor=#ffffff;dashed=0;verticalLabelPosition=bottom;verticalAlign=top;align=center;html=1;fontSize=12;fontStyle=0;aspect=fixed;shape=mxgraph.aws4.resourceIcon;resIcon=mxgraph.aws4.certificate_manager_3;" vertex="1" parent="1">
          <mxGeometry x="-124" y="1000" width="78" height="78" as="geometry" />
        </mxCell>
        <mxCell id="xA6Rh12xu-k43yr7fUOe-48" style="edgeStyle=orthogonalEdgeStyle;rounded=0;orthogonalLoop=1;jettySize=auto;html=1;" edge="1" parent="1" source="xA6Rh12xu-k43yr7fUOe-18" target="xA6Rh12xu-k43yr7fUOe-4">
          <mxGeometry relative="1" as="geometry" />
        </mxCell>
        <mxCell id="xA6Rh12xu-k43yr7fUOe-18" value="Code Deploy" style="outlineConnect=0;dashed=0;verticalLabelPosition=bottom;verticalAlign=top;align=center;html=1;shape=mxgraph.aws3.codedeploy;fillColor=#759C3E;gradientColor=none;" vertex="1" parent="1">
          <mxGeometry x="110" y="548.5" width="67.5" height="81" as="geometry" />
        </mxCell>
        <mxCell id="xA6Rh12xu-k43yr7fUOe-49" style="edgeStyle=orthogonalEdgeStyle;rounded=0;orthogonalLoop=1;jettySize=auto;html=1;entryX=0.5;entryY=0;entryDx=0;entryDy=0;" edge="1" parent="1" source="xA6Rh12xu-k43yr7fUOe-4" target="xA6Rh12xu-k43yr7fUOe-34">
          <mxGeometry relative="1" as="geometry" />
        </mxCell>
        <mxCell id="xA6Rh12xu-k43yr7fUOe-4" value="S3" style="sketch=0;points=[[0,0,0],[0.25,0,0],[0.5,0,0],[0.75,0,0],[1,0,0],[0,1,0],[0.25,1,0],[0.5,1,0],[0.75,1,0],[1,1,0],[0,0.25,0],[0,0.5,0],[0,0.75,0],[1,0.25,0],[1,0.5,0],[1,0.75,0]];outlineConnect=0;fontColor=#232F3E;fillColor=#7AA116;strokeColor=#ffffff;dashed=0;verticalLabelPosition=bottom;verticalAlign=top;align=center;html=1;fontSize=12;fontStyle=0;aspect=fixed;shape=mxgraph.aws4.resourceIcon;resIcon=mxgraph.aws4.s3;" vertex="1" parent="1">
          <mxGeometry x="270" y="550" width="78" height="78" as="geometry" />
        </mxCell>
      </root>
    </mxGraphModel>
  </diagram>
</mxfile>
